<svg version="1" xmlns="http://www.w3.org/2000/svg" width="413.333" height="413.333" viewBox="0 0 310.000000 310.000000"><path d="M20 59.5c0 2.4.3 2.5 5.3 2.5 12 0 20.2 4.9 21.8 13.2.4 2.4.8 38.6.9 80.4 0 66.1-.2 76.7-1.5 80.5-3 8.3-10.6 13.7-20.7 14.6-5.3.5-5.8.8-5.8 2.9v2.4h67v-2.4c0-2.1-.5-2.4-6.2-3-8.8-.9-14.6-4.1-18.3-10.1l-3-4.8-.2-79.1-.3-79.1L82.1 131c12.7 29.4 29.9 69.5 38.4 89 11.7 27.3 15.7 35.6 17.1 35.8 1.6.2 7.4-13 39.4-89.8l37.5-90 .3 76.8c.2 42.2 0 79-.3 81.9-1.3 10.5-7.2 15.4-19.6 16.1-7.5.4-7.9.6-7.9 2.8v2.4h104v-2.5c0-2.4-.3-2.5-5.7-2.5-3.2 0-7.5-.5-9.6-1.1-5.4-1.5-10.6-6.5-11.7-11.4-1.4-5.8-1.3-157.1.1-163.4 1.8-8.7 9-13.1 21.2-13.1 5.4 0 5.7-.1 5.7-2.5V57l-40.6.2-40.6.3-26.2 64.2c-14.4 35.4-26.5 64.5-26.8 64.8-.2.3-13-28.8-28.3-64.5l-27.8-65H20v2.5z"/></svg>